<?xml version="1.0" standalone="no"?>
<!DOCTYPE svg PUBLIC "-//W3C//DTD SVG 20010904//EN"
 "http://www.w3.org/TR/2001/REC-SVG-20010904/DTD/svg10.dtd">
<svg version="1.0" xmlns="http://www.w3.org/2000/svg"
 width="1455.000000pt" height="1455.000000pt" viewBox="0 0 1455.000000 1455.000000"
 preserveAspectRatio="xMidYMid meet">
<metadata>
Created by potrace 1.14, written by Peter Selinger 2001-2017
</metadata>
<g transform="translate(0.000000,1455.000000) scale(0.100000,-0.100000)"
fill="#000000" stroke="none">
<path d="M6166 11673 c-2 -2 -510 -10 -1176 -18 -380 -4 -424 -7 -586 -41
-120 -24 -294 -104 -400 -185 -62 -46 -164 -144 -204 -195 -103 -131 -198
-309 -264 -494 -13 -36 -111 -279 -127 -315 -4 -11 -17 -42 -27 -70 -11 -27
-88 -221 -171 -430 -84 -209 -202 -504 -263 -655 -60 -151 -153 -382 -207
-514 l-96 -239 -105 -37 c-145 -51 -226 -92 -358 -178 -150 -97 -310 -256
-387 -383 -51 -84 -153 -309 -140 -309 2 0 -3 -20 -10 -44 -8 -25 -17 -78 -21
-118 -10 -105 -11 -3249 0 -3255 4 -3 212 -6 462 -5 l454 0 1 -562 c0 -533 1
-597 12 -656 44 -238 214 -444 445 -539 122 -51 226 -72 360 -73 230 -3 426
59 591 187 161 124 267 313 296 530 4 26 8 177 20 720 2 77 3 195 4 262 l1
122 2965 0 c2790 0 2965 -1 2965 -17 1 -9 3 -123 5 -252 17 -904 14 -840 52
-970 91 -314 357 -529 713 -576 77 -10 219 -7 290 6 33 6 70 13 83 15 12 3 61
20 109 39 257 101 424 303 472 576 3 14 5 287 5 606 l1 582 457 0 c409 -1 457
1 462 15 8 22 5 3228 -2 3259 -4 14 -9 43 -13 64 -10 65 -54 195 -91 269 -160
322 -431 551 -813 686 -57 20 -108 43 -112 50 -4 8 -219 544 -478 1191 -258
648 -482 1204 -497 1235 -95 197 -240 376 -395 486 -135 96 -332 173 -490 192
-24 3 -60 8 -81 11 -20 3 -187 7 -370 9 -182 2 -519 7 -747 11 -383 6 -2589
12 -2594 7z"/>
</g>
</svg>
